/* XPM */
static char *xpm_[] = {
/* columns rows colors chars-per-pixel */
"16 16 218 2 ",
"   c #4E060C",
".  c #52050C",
"X  c #781603",
"o  c #7B3439",
"O  c #7C4B16",
"+  c #635428",
"@  c #79562A",
"#  c #713443",
"$  c #78444C",
"%  c #66455F",
"&  c #79465F",
"*  c #745854",
"=  c #79625D",
"-  c #75506E",
";  c #A21C00",
":  c #972909",
">  c #9E340E",
",  c #882C11",
"<  c #86251C",
"1  c #922015",
"2  c #873319",
"3  c #A63709",
"4  c #BC3905",
"5  c #BD3C05",
"6  c #B91C30",
"7  c #8C3B26",
"8  c #A02B2C",
"9  c #C81F39",
"0  c #DA273D",
"q  c #965A0C",
"w  c #874D12",
"e  c #8E431A",
"r  c #B05C00",
"t  c #BD481A",
"y  c #A8571E",
"u  c #B06B12",
"i  c #BE6F19",
"p  c #BB7617",
"a  c #BC751C",
"s  c #9E5034",
"d  c #B25023",
"f  c #A9433E",
"g  c #B86228",
"h  c #B87E20",
"j  c #BF6A39",
"k  c #B97D34",
"l  c #D75B06",
"z  c #C96500",
"x  c #CF6600",
"c  c #C86A00",
"v  c #C96E01",
"b  c #D06700",
"n  c #D26A00",
"m  c #D9650D",
"M  c #CD6813",
"N  c #EA7E1C",
"B  c #C34923",
"V  c #C9612C",
"C  c #CB6636",
"Z  c #C46D38",
"A  c #C47435",
"S  c #D07A35",
"D  c #DD7A3B",
"F  c #EA7B2C",
"G  c #8A4742",
"H  c #924752",
"J  c #B7494F",
"K  c #8B7B43",
"L  c #97685D",
"P  c #AD7742",
"I  c #B17243",
"U  c #A76854",
"Y  c #A3665F",
"T  c #BA6655",
"R  c #B7715C",
"E  c #B95A6D",
"W  c #846874",
"Q  c #A37B7E",
"!  c #AE7A78",
"~  c #D2444B",
"^  c #D05552",
"/  c #C26D44",
"(  c #CA7A5F",
")  c #DC617D",
"_  c #BF8722",
"`  c #B7862A",
"'  c #BC9E35",
"]  c #C88C03",
"[  c #CF8A1B",
"{  c #FE8700",
"}  c #FB8800",
"|  c #FF8E00",
" . c #EB9209",
".. c #F69100",
"X. c #F59701",
"o. c #FD9800",
"O. c #F89D00",
"+. c #EE9513",
"@. c #E4A908",
"#. c #FFA406",
"$. c #EFAA15",
"%. c #F8B610",
"&. c #F3BB13",
"*. c #CF8326",
"=. c #D08B2F",
"-. c #C4843E",
";. c #CD863F",
":. c #C79237",
">. c #EC9521",
",. c #F0AF20",
"<. c #F6AA2D",
"1. c #F3B535",
"2. c #F8CB3B",
"3. c #A58F5E",
"4. c #B68A5A",
"5. c #A6887E",
"6. c #C68347",
"7. c #D1B342",
"8. c #DFA756",
"9. c #D1B855",
"0. c #F0BE44",
"q. c #F0BF52",
"w. c #C88064",
"e. c #C69D6C",
"r. c #CE9B7B",
"t. c #C4AD64",
"y. c #CBA768",
"u. c #D2B861",
"i. c #D2B071",
"p. c #E4A266",
"a. c #F3BF73",
"s. c #F5C24A",
"d. c #F2CA4E",
"f. c #FFE65E",
"g. c #EECF61",
"h. c #EAD86F",
"j. c #F8E563",
"k. c #FFF76D",
"l. c #F1E17D",
"z. c #706890",
"x. c #756899",
"c. c #7F7295",
"v. c #885A80",
"b. c #9C7098",
"n. c #A56B87",
"m. c #AE8387",
"M. c #B29984",
"N. c #B18E93",
"B. c #A19097",
"V. c #AF9193",
"C. c #B694A7",
"Z. c #B3A4AD",
"A. c #B1A4B6",
"S. c #B9AEBE",
"D. c #D79E96",
"F. c #C9A28D",
"G. c #C6AF8D",
"H. c #CAB08F",
"J. c #D3BB9F",
"K. c #CF88AC",
"L. c #DF90B5",
"P. c #E495B3",
"I. c #C5A1A1",
"U. c #DCA8B3",
"Y. c #CBB2B9",
"T. c #D1C987",
"R. c #E2C887",
"E. c #F5D188",
"W. c #F0D78E",
"Q. c #EECE93",
"!. c #F9D79F",
"~. c #F8DA9E",
"^. c #F8EB84",
"/. c #FFFF83",
"(. c #FAF58E",
"). c #CEC5BE",
"_. c #D3C4B5",
"`. c #D7CEB9",
"'. c #D6D0BA",
"]. c #F6DFAA",
"[. c #E2CFB8",
"{. c #ECE3A3",
"}. c #F6E1A8",
"|. c #FFFFAF",
" X c #F0E2B3",
".X c #F7E1B5",
"XX c #F5E6BE",
"oX c #FDEEBD",
"OX c #BCB5CB",
"+X c #BEB2CE",
"@X c #B8B1D1",
"#X c #BFB5D3",
"$X c #B4BCDC",
"%X c #B7B8E1",
"&X c #B3BFE7",
"*X c #DABAD4",
"=X c #B3C1E3",
"-X c #CCCDCB",
";X c #D7C4CB",
":X c #DCC6CA",
">X c #DBCBD6",
",X c #D6DDDA",
"<X c #FFFFC6",
"1X c #ECE7DA",
"2X c #F2F1D2",
"3X c #D3C9E4",
"4X c #D1D7E3",
"5X c #D6DAE0",
"6X c #DADDE0",
"7X c #D9DEE1",
"8X c #D6DDE9",
"9X c #CAD3F3",
"0X c #F0F0E3",
"qX c #FDF7E3",
"wX c #F9F9E4",
"eX c #FCFFF4",
"rX c #FFFEFA",
"tX c #FCFFFF",
/* pixels */
"r *.7X-.b H.8X*.M u 7XJ.n i 4X=.",
"`.O.q.rXO.<.tXa.4 g tX1.#.[.e.o.",
"-XtX,.g.XX%.p.; F 5 d $.Q.i.p eX",
"c ].tXd.l.E.w T N t O A {.h 0X].",
"z } 0.qX(.;.e l F m S y u._.y.} ",
"5X.X1.&.^.r.: V ( / 3 2 t._ :.}.",
"H.wXtXqX^.W.1 Z.;X%X< , T.M.tXtX",
"n +.:X7.j. Xo - A.% H + /.P @...",
"x  .>X3.f.R.& +X$XOXv.K k.k ] o.",
"G.eXY.= <X9.  3Xn.#X# @ |.F.9X2X",
",X<X8.R I X $ c.*XB.-   h.a ` oX",
"z { 4.C H o 5.=Xz.x.v.* * Y ' { ",
"z !.1Xf ^ D.U V.=XB.s I.B 7 ,X~.",
").tX2.~ ) E s j ( Z G J > 6 6.tX",
"`.X.s.K.L.C.5.m.D ! L W 8 0 t [ ",
"z >.tXU.P.L.S.m.( V.N.@Xb.9 Z q "
};
