/* XPM */
static char *a7e0df4a597a4f159731a33e770954cbRp6osXm2ZuWuNVRt[] = {
/* columns rows colors chars-per-pixel */
"64 64 30 1 ",
"  c white",
". c #FEFEFE",
"X c gray19",
"o c #020202",
"O c #FDFDFD",
"+ c DimGray",
"@ c #0B0B0B",
"# c #F8F8F8",
"$ c #4E4E4E",
"% c gray36",
"& c #C5C5C5",
"* c #797979",
"= c #F3F3F3",
"- c #909090",
"; c gray74",
": c gray81",
"> c gray88",
", c #222222",
"< c gray83",
"1 c gray92",
"2 c #3C3C3C",
"3 c #868686",
"4 c #444444",
"5 c gray69",
"6 c #E7E7E7",
"7 c #A4A4A4",
"8 c #727272",
"9 c gray60",
"0 c #151515",
"q c gray86",
/* pixels */
"                ..   ..                                         ",
"                .O::# .                                         ",
"                . 7,%:.  ....                                   ",
"                 .>Xo26 .O..O                                   ",
"                 .O&8,5 ..&>                                    ",
"                  .  3*.. *2&                                   ",
"                     >%>  8o$O                                  ",
"                      &1  *o$.      .                           ",
"  >&&&&&&&&&&&&&&&&&&&&&&&%o2;&&&&&1.                           ",
"  -o@@@@@@@@@o@@oooooooo@@oooooooo@;                            ",
"  &*400$*****%,4**********2o,******q                            ",
"   6%X+1     .7%6   O#O   *o$       .                           ",
"   &2X-       6$7 .#827   8o$O    .                             ",
"   ;XX-       q43O.=2o3 . 8o$O    .                             ",
"   ;XX-    O.O9X3O #2o3 . 8o$O                                  ",
"   ;XX-    .O;4X9  #2o3   8o$O                                  ",
"   ;XX- .. =74X4<  #2o3   8o$O ....                             ",
"   ;XX-  =&82XX-#. #2o3   8o$O.O  .                             ",
"   ;XX-O5+2XXX81 . #2o3   8o$O <5=                              ",
"   ;XX-O52XXX*1    #2o3   8o$O 50$q                             ",
"   ;XX- O54%%%71 . =2o3 . 9o$O 3oX>                             ",
"   ;XX-  #<1=54%<..#4o3 . >XX><X,;                              ",
"   ;XX-  . .. 7X%6 O;4- .. :%$$%;O.                             ",
"   ;XX-  ..   >4X7   =6     #>>#  .                             ",
"   ;XX-       1$X8# ..                                          ",
"   ;XX-       1$X+=  .                                          ",
"   ;XX-       &2X+#                                             ",
"   ;XX- .    18XX3.                                             ",
"   ;XX-=   #<*XX2;             O.                               ",
"   ;XX-&77-84XXX3#             O. .                             ",
"   ;XX-#92XXXX2-=              O. ..                            ",
"   &2X- O:-++3&#.O.            O. .                             ",
"   #72- .  ##O ...             O.                               ",
"  ..#79 .                      O.                               ",
".... #=                       .O                              . ",
".O                                                            O.",
" O9++++++++++++++++++++++++++++++++++++++++++++++++++++++++++*6 ",
" #%@ooo@@@@@oo@@@@@oo@@@@@@@@@@@oo@@@@@@@@@@@@@@@@@@@@@ooo@@@,q ",
".O>9X,+&:::&3$7::::$05<<<<<::::7@%<<<<<:::::::<<<<::::<+o2:::<# ",
"  .*X4<    .O-%<   %0&:7-7&=   :@+>;9-5>     1;-9:#   6%o21   . ",
"  =%X$6    . >48#..%o,@ooo@%6. :@0,@ooo,7O.#72@oo@$&:*Xoo@25#O. ",
"  =%X$6     .=%4q 12@2+**+,o3. 7@,$8**$o,q 9@o@48840,o0%95-$5 . ",
"  =%X$1      1%X& <3&11>>#;@4=O97>=6>1=%o5<,o09=  -oo,5#   q81. ",
"  =%X$1      &22: O#;+2,,$30X6  6-$,0X8%o9-oo3  .>Xo@7 ...O#8<  ",
"  =%X$1   . =8X%1 6+@@,,,@oo,> 5Xo0,,0ooo*8o,q   5@o$#   ..64&  ",
"  =%X$1    =3XX9.=%@$5>6>;+@,>;0,3:66:9Xo*-o,6   6947 .   #*,>  ",
"  =%X$6  O<8XX%> 5,9=     ;0,<$4<     #%o*<,0& .   == .  1*o%#  ",
"  =%X$61&34XX4;. 9*     =7Xo,&$:    O<+@o* 9@+#   .. .O154o0& . ",
"  =%X$>-2XXX$5OO :*&<<;34@oo,q-9:<:5+,ooo* #-,7...   #9X@o09OO. ",
"  =%X$6>+XX2*>. OO5400@ooX3X0>18,0@oo0%8@*  #5$5O.  ..<4o,7#..  ",
"  =%X$6 >3558$7=.O >7*+356 <36 #&-+89&#=77  . >7:O   . >9< ..   ",
"  =%X$1 .O  =3X3= .   . .   OO    .    . O..   O=O.   ..        ",
"  =%X$1 .... >$X5 .  ..     O.   ...   .....  .O...    ..       ",
"  =%X$1      =+X+=                                              ",
"  =%X$1      #+X$6                                              ",
"  =%X$1      #+X4>                                              ",
"  =%X$1      #+X4>                                              ",
"  =%X$1      #+X4>                                              ",
"  =%X$1      #+X4>                                              ",
"  #3X$6      O9X4>                                              ",
"   =3$6       =-4q                                              ",
"   O=71        #76                                              ",
"     #O.        OO                                              ",
"     .           .                                              "
};
