/* XPM */
static char *xpm_[] = {
/* columns rows colors chars-per-pixel */
"64 64 255 2 ",
"   c #010101",
".  c #0B0B0A",
"X  c #0F1409",
"o  c #161615",
"O  c #3B0502",
"+  c #322F0E",
"@  c #201F2A",
"#  c #272726",
"$  c #283233",
"%  c #373637",
"&  c #4C090F",
"*  c #581319",
"=  c #701013",
"-  c #523410",
";  c #663310",
":  c #561725",
">  c #731924",
",  c #52302E",
"<  c #742C2E",
"1  c #3D411F",
"2  c #4F4A06",
"3  c #72520C",
"4  c #73690B",
"5  c #534D28",
"6  c #6F4F31",
"7  c #3C3C44",
"8  c #593C56",
"9  c #70384D",
"0  c #3C4852",
"q  c #494949",
"w  c #4F4E52",
"e  c #575757",
"r  c #734D57",
"t  c #6F6B54",
"y  c #545069",
"u  c #724E6E",
"i  c #636464",
"p  c #6A6A66",
"a  c #6A6C6B",
"s  c #726E6F",
"d  c #737473",
"f  c #7A7A7A",
"g  c #8D1511",
"h  c #A7140A",
"j  c #902D16",
"k  c #B52709",
"l  c #AB360C",
"z  c #BC370A",
"x  c #A62E11",
"c  c #B72815",
"v  c #B53815",
"b  c #9E1B24",
"n  c #8E2B2A",
"m  c #97382A",
"M  c #853438",
"N  c #AB322C",
"B  c #C6350E",
"V  c #CB1B2E",
"C  c #CB2539",
"Z  c #D3253A",
"A  c #CB3430",
"S  c #994B01",
"D  c #9A5203",
"F  c #8E4F15",
"G  c #A25401",
"H  c #B14F12",
"J  c #B84816",
"K  c #917808",
"L  c #B06F07",
"P  c #A87803",
"I  c #91522A",
"U  c #A64828",
"Y  c #B64A24",
"T  c #BA5726",
"R  c #AC5134",
"E  c #97662B",
"W  c #B26A34",
"Q  c #CE510F",
"!  c #D65809",
"~  c #C84916",
"^  c #C85816",
"/  c #D26A0E",
"(  c #D87504",
")  c #D96617",
"_  c #E87806",
"`  c #F97A00",
"'  c #E87014",
"]  c #C85925",
"[  c #D0542B",
"{  c #E15530",
"}  c #C76527",
"|  c #D46927",
" . c #D77728",
".. c #C76539",
"X. c #CA7537",
"o. c #D37435",
"O. c #E6742B",
"+. c #8E3948",
"@. c #AF3452",
"#. c #D43049",
"$. c #E3374E",
"%. c #8F504F",
"&. c #B05451",
"*. c #9A6F4D",
"=. c #B26B51",
"-. c #8D536B",
";. c #B2506B",
":. c #907072",
">. c #A66765",
",. c #AF7570",
"<. c #D24254",
"1. c #EA4054",
"2. c #CE7347",
"3. c #D55977",
"4. c #E84F70",
"5. c #CB706F",
"6. c #7A8927",
"7. c #B18C13",
"8. c #B1902E",
"9. c #AEA024",
"0. c #D1950E",
"q. c #E78707",
"w. c #EB8304",
"e. c #F48701",
"r. c #FC8401",
"t. c #FD8C02",
"y. c #EA9604",
"u. c #FD9303",
"i. c #F39903",
"p. c #FD9B02",
"a. c #FE960A",
"s. c #FE9B0C",
"d. c #F09517",
"f. c #D3AE09",
"g. c #FBA804",
"h. c #FEA20D",
"j. c #FBB604",
"k. c #FDA412",
"l. c #FEAB14",
"z. c #F9AB19",
"x. c #EBB211",
"c. c #FDB517",
"v. c #FDBB1C",
"b. c #CE8933",
"n. c #EB9032",
"m. c #D3B134",
"M. c #F7A929",
"N. c #F2B234",
"B. c #FBC907",
"V. c #F5D00E",
"C. c #FCCB16",
"Z. c #FCD515",
"A. c #FEE319",
"S. c #FCC925",
"D. c #F3CC2F",
"F. c #FDD829",
"G. c #FFE429",
"H. c #AE9C5D",
"J. c #8F856E",
"K. c #B78671",
"L. c #D2894F",
"P. c #E68C52",
"I. c #D6B056",
"U. c #EFAF4E",
"Y. c #CE8B72",
"T. c #E8926B",
"R. c #D2AE74",
"E. c #EEB870",
"W. c #F3CE4D",
"Q. c #FCE54E",
"!. c #F3CF72",
"~. c #F9E676",
"^. c #77638E",
"/. c #796B91",
"(. c #907290",
"). c #B1778B",
"_. c #8C7AA5",
"`. c #B975A1",
"'. c #CC6E94",
"]. c #E56F98",
"[. c #7A82B3",
"{. c #9B968C",
"}. c #8F8790",
"|. c #989795",
" X c #AD8D8E",
".X c #A3A29D",
"XX c #BDBD99",
"oX c #9689A8",
"OX c #8D89B0",
"+X c #9C96B9",
"@X c #AD92AD",
"#X c #A69ABA",
"$X c #9CA5A8",
"%X c #A5A6A8",
"&X c #A9A7B6",
"*X c #B3ACB3",
"=X c #B8B9B8",
"-X c #CF958D",
";X c #D7AC90",
":X c #E6B492",
">X c #D28FAE",
",X c #F98CB3",
"<X c #E597BA",
"1X c #CFACAE",
"2X c #E1BBBC",
"3X c #BBC39E",
"4X c #F0CD93",
"5X c #F7E890",
"6X c #D2C7B8",
"7X c #F3DBA7",
"8X c #ECD6B5",
"9X c #F4EBB0",
"0X c #F5E8B9",
"qX c #9398C5",
"wX c #A89AC3",
"eX c #9AA5C9",
"rX c #9CA5D2",
"tX c #A6A6C7",
"yX c #B2B0CE",
"uX c #B7B7D6",
"iX c #BBB7E2",
"pX c #C7B8C7",
"aX c #CBB4CE",
"sX c #CBB1DD",
"dX c #EDAFD1",
"fX c #BBC6D6",
"gX c #BEC6E3",
"hX c #C6C6C7",
"jX c #D4CACE",
"kX c #C9C7D9",
"lX c #D8D9D8",
"zX c #E9D7D1",
"xX c #F6EAC7",
"cX c #F2EBCC",
"vX c #F6ECDB",
"bX c #F9EFDD",
"nX c #F8F3DB",
"mX c #CCD0EB",
"MX c #D8D9E7",
"NX c #F8D4EE",
"BX c #D7E5F1",
"VX c #D9E3F7",
"CX c #E9E9E7",
"ZX c #F6EEE4",
"AX c #F5EEE7",
"SX c #FAF8EA",
"DX c #E5E8F8",
"FX c #F4ECFC",
"GX c #EBF6FC",
"HX c #F3F3F2",
"JX c #F7F7F6",
"KX c #FCFCF5",
"LX c #F5FCFD",
"PX c #FEFFFD",
"IX c #FEFFFF",
/* pixels */
"F S D D D E *X$X|.%X%XE G G G G D G G G &X%X.X.X.X.X{.G G G G G E G G G G *.%X%X.X.X.X&XE G G G G D G G F *X.X.X.X&X*.D G G G D ",
"S L ( w.q._ d.GXCXCXCXLX( w.q.q.w.w.w._ 8XHXCXCXCXCXJX_ w._ e./ n.J ( _ _ 4XHXCXCXCXCXAX( e.w.w.w.w.` ( JXCXCXCXLXI.` w.w.w.w.q.",
"E ( a.s.a.a.u.e.PXPXKXKXPXw.a.a.s.s.a.p.y.PXPXPXPXKXPXM.u.p.p.^ Q z F ( e.KXPXKXPXPXPXN.u.a.p.a.s.a.e.PXPXPXPXPXM.t.p.a.p.p.t.d.",
"$X;Xe.s.k.s.p.s.y.PXPXPXPXPXe.s.s.s.s.s.t.8XPXPXPXKXPX4Xp.p.N...n.' 6 3 q.PXKXJXKXPXvXr.s.s.s.s.s.r.PXn j H HXd.d.M.s.s.s.e.E.PX",
"|.BXKXi.p.z.h.k.M.y.PXLXKXPX0Xu.k.h.k.h.k.U.PXJXPXPXPXSXp.M.J ' ' _ ' F I.PXJXPXPXPXU.g.h.h.s.h.u.9X>.zXPXjX2.0.k.p.h.g.e.xXPXSX",
"|.lXPXPX4Xp.v.M.h.l.i.cXPXPXPX7Xp.z.l.h.U.g.7XLXPXKXPX..n.l k h h h k k  .X.GXHXPXbXp.l.z.l.l.g.4X1X8XLXhXL.5.P d.l.g.E.PXPXPXJX",
"{.lXLXKXPX0Xk.g.c.l.l.g.vXPXPXPXU.j.l.l.v.N.N.PXAXSXn.~ z ~ ~ n.M.n.^ J / Q P.K.GXW.l.c.c.l.j.N.PXH PXlXN.;.U.P y.g.4XPXPXPXPXSX",
"|.lXKXPXJXPXLX!.j.v.v.c.g.0XPXPXPXW.j.v.v.c.g.8XY.| z ) k ~ ) ) ) ' ! Q x Q Q ] I 0.c.c.v.c.N.PXzXY.HX0.b.=.f.L N.LXPXKXPXKXPXPX",
"*.BXPXPXPXPXPXPX4Xj.v.v.v.g.cXPXIXPXg.v.C.v.F.b.) Q L.x ~ ) ) ' ' ' ) ) ~ h n.! J ..0.v.C.g.LXPX4XK.7.x.X.N.0.H.LXPXPXKXKXPXPXE.",
"S ! 4XPXPXPXKXKXPXPXD.j.S.v.j.5XIXIXLXj.v.C.P.[ ) K.w B B k h U ..| x k B B @ R ' Q X.8.j.nXPXPX=. .7.x.D.b.XXGXKXKXPXPXPXE.` ` ",
"D ( r.w.0XPXPXPXKXPXPX~.j.S.S.j.5XPXPXcXB.U.T.) W y w }.g h 2.' / / ] h h o # # ^ ~ } T 1XKXPXnXJ 0.K j.W.zXlXHXPXPXPX7X_ r.r.e.",
"D ( u.p.t.d.8XPXPXPXPXPXSXV.C.S.B.!.IXPX0XP.J  .2 e fXE.O.n._ n.M.' ' n.n.E 0 7.9.) z / {.DX5XV.U b.P 0XFXaXMXKXPX7Xi.u.p.a.t.r.",
"D ( t.a.s.s.p.g.SXPXPXKXPXPX!.B.S.B.Q.IXzX} ~ 3 2 9.O.Q ^  .d.Q O.Q ' O.! ! ' 9.D.b.~ B t H.B.G.H N.$XLXMXlXmXzXi.p.h.s.a.u.t.r.",
"D ( u.a.s.h.k.l.g.N.ZXPXPXKXPX9XV.Z.C.~.dX~ ] 2 4 ^ B Q / ^ ' M.) ` ! ^ ^ ) ^ J 9.Q.J ! F 4 S.A.J jX=XPXGXhX7.y.l.h.k.a.s.u.t.r.",
"D ( t.s.s.s.k.l.l.j.g.D.cXPXKXPXIX~.Z.A.X.B %.5 T v ^ ' ) ~  .) b.|  .| } ! ^ z S fXY.z ..4 m.PX5.R.fXxX!.sXP d.l.l.k.s.a.a.r.` ",
":.L.` e.p.s.k.z.l.c.v.C.j.!.PXPXIXIX5XA.L.B s I B z } ! [ ) | X.zXT ^ / ^ / J J l :.L.l o.5 lXPX-XL.H.x.U.wX7.0.l.h.s.a.r.` U.7X",
"{.CXPXvX!.N.M.M.U.c.C.v.C.C.B.!.SXKXPXKXL.Q 6 Y x k v | b.[ } :Xh :X} | b.o.~ x U j E B W 0 fXJXI.l 7.x.R.5.7.0.g.t.N.4XSXPXPXKX",
"{.lXPXPXPXPXHX!.N.g.j.c.v.S.S.C.B.5XPXPX*X] 3 Y ~ J ] ! H T.=.T.2.L.2.T.G B ~ J l ; F B R 0 R.V.G.j 8.m.c.j.L 0.!.SXPXPXPXKXPXSX",
"{.lXKXPXKXPXLXLXPXPX7XW.c.B.C.S.F.Z.V.5XNXo.j +.x x c :X>.%.-.N *.N -.%.,.-Xl x l < n B t 2 f.D.G.T E 7.W.7XLXPXLXPXKXKXPXPXPXSX",
"{.lXLXKXPXPXPXKXKXPXPXPXPXxXW.B.V.F.Z.G.F.sX&.%.k v +.& yXVXGX XGX>XmXuX_.& < l B %.h | + 3 V.Z.V.2.=.tXGXPXPXKXPXPXPXPXKXPXKXKX",
"J.jXPXPXPXPXPXPXFXPXKXPXKXPXPXPXxX~.F.V.A.mXY.c v Y.< :.mXBXDX<XGX1XmXuXeXr < 5.c x l F + K ~.0XPX1X,.%XCXPXKXKXPXKXPXPXPXPXPXSX",
"G ! ` e.i.U.!.7XCXPXPXPXPXPXPXPXPXPXPXPX5XuX-X* v & 9 #XVXVXBX1XGXpXmXgXtX_.< = j j { # e mXLXLXPX1X&.&XlXPXPXPXPXxX4XU.M.e.` ` ",
"D ( t.s.u.p.i.!.pX4X:X!.!.5X0XSXPXPXPXLXPXaX1Xl c < -.@X:.%XDX@XNXaXyXr r (.u g J z %.$ }.GXPXPXPXzX&.J.I.W.M.g.i.p.p.p.u.t.` r.",
"D ( t.a.p.g.T.uX1XPX X6X0.C.B.B.V.V.F.Q.5XsX6X= m , #X_._.8 : aX).(., _.+X(.@X9 x < o 5 I.Q.F.V.B.V.m *.K c.c.c.k.k.k.s.a.a.e.r.",
"D ( t.a.s.s.U.@XzXAX XFX2 v.S.S.F.F.F.G.W.iXkX& , u ^.9 : , u _.VXu u : & 9 _.8 u M + 4 D.F.F.F.S.Q.m K.K M.c.l.l.l.k.s.p.a.r.r.",
"D ( t.a.a.g.z.OXPX1XCXdX*XP S.S.S.F.F.F.W.iXMXr 9 :.(.r 9 :.(.rXgX+X Xu r r oXr -.%.+ 7.F.G.F.F.S.G.m K.3 0.v.c.l.k.h.s.a.u.t.r.",
"S ( t.s.a.h.h.tXpX1XPX-XDX2 x.Z.B.V.Z.G.~.<XNX> (.-.iXgXtXuXVXtXmXqXmXuXwXuXwXr `.> + 9.F.V.V.B.C.Z.H K.3 0.c.c.l.h.h.s.a.t.t.r.",
"D ( a.a.s.g.p.R. XFXjX XuX+ R.0XSXPXPXPX*XH.W * (.9 sXmXGXVXVXtXDX_.mXDXVXkX#X-.-.& u OXPXPXSXnX9X5XL.=.6 P g.g.g.h.h.s.a.a.t.r.",
"S ! ` e.y.N.!.8X(.FXY.2Xr % fXPXPXPXPXPXH.6.6.; +.-.uXsXMXMXgXfXDXyX#XmXsXaXwX-.9 > + t LXPXPXPXKXPX1X=./.*XSX0X!.N.i.e.r.r.` ` ",
"H.6XPXPXPXPXLXPXMX,.,.;X>.7 MXPXPX9XQ.V.Q.!.U * & -.#XaXjXkXVXOX^.^.#XaXaX&XoX>.& > - 4 V.Q.9XKXPXPXjX] f |.LXPXPXPXPXPXKXxX4XE.",
"|.lXPXKXJXHXPXPXPX;.-X>.2X5 R.D.B.Z.G.A.Q.= g > * R -.#XwX-.;.<.'.N %.(.@XoX9 > : = > 8.D.F.Z.B.Z.5X-Xo.:.{.JXKXJXPXPXKXPXPXPXPX",
"{.jXPXPXKXPXPXPXPXMX,. X X- K F.D.W.I.I.H.= > = * = & qXwXsXaX#.#.<.yXwX$XOX& < & * > a H.Z.Z.S.F.B.W P.r J.PXPXPXPXPXKXPXPXPXSX",
"{.lXPXPXPXPXPX7XW.j.&. X;X=.Y.:.(.-.N b = > * * & zXu ^.#XuXmXrXqXrXiXwX_.y aXFXO * * < u  X~.Z.Z.F.U X.3 F y.W.7XJXPXPXPXKXPXSX",
"{.lXPXPXxXE.i.g.g.c.L.Y...2.&.>.,.=.Y n n n & & , AX(./.^.tXgXVXVXmXrX_.^.u , ,.u * * = = = LXcXD.A.m o.I 4 c.j.g.i.E.0XPXPXPXSX",
"{.R.M._ t.p.h.j. X}.,.R [ 2...Y.>.2.N > : * : wX@X< u rXoXu ^.OX_._.^.8 u ^.8 -.+XoX: O * n i fXPXSX= T 4 3 z.l.l.h.p.t.` M.4XvX",
"l _ t.a.s.s.l.j. X{.2.P. .o.&.>.>.%.n n * * yX&X).M OXuXgXeX^.8 y 8 u ^.^._.u M &X&X(.O & = < *XKXKX= R 5 F x.c.l.h.k.k.a.t.` ` ",
"S ( u.i.a.k.k.l.j.:.=...R R &.=.,.&.n : *  XyXhX9 N qXiXfXgXyXeXOXOX[.OX/.[.u n oXhXtX+.& * N 4 0XMXg m :.J.z.g.l.k.h.a.a.t.r.r.",
"D ( a.a.h.s.g.e.5XPX:.&.2.o.2.=.%.n > K.C mXhXhXg ..}.uXgXgXgXuXtX&X+X+XqX[.m U -.pX=X).2.Y.. 2 f.L.j =.0 {.PX0Xi.g.k.s.p.a.t.r.",
"D ( a.a.u.e.!.PXPXPX1XX...R n @.'.5.U.[ @.MXMX@Xx U 2.rXuXfXfXuXyXtXeXeXOX-.} U < lX=X@XV ~ 2.N ..m ^ :.e =XSXPXPX!.e.u.a.a.t.r.",
"S ( t._ E.PXJXKXJXPXjX%.@.U 3.'.4.#.U.{ '.DXDX,.j W W |  XrXuXrXtXeXqXOX*.X.j T M pXkXyXc n.n.A C U g 6 1 BXLXKXPXPXKX4Xe.t.t.r.",
"D ! M.ZXPXJXKXJXGXPX!.m.;.3.$.#.$.^ | A =.t t E N R T E o.L. X|.}. X,.L.b.F } m g 3XJ.=XV } | c n R n #.I m.PXKXKXPXPXPXSXU.` ` ",
"E lXPXPXKXPXAXLX0Xj.j.U.].#.4.C #.-XNX;.: '.].6 m r T } F T. .:X7X2.P.W ^ T r U , M ;.< = ~ H j n g N V Z W 0.7XPXKXPXKXPXPXPXP.",
"{.lXKXPXPXKXPX7Xg.v.B.P.'.$.#.Z ,X>X>XdX].4.3.,X; >.u ^ o. .=.X.k Y.} o.H -./.F : 4.3.4.< l Y U T g 1.V Z [ 8.q.!.PXPXKXPXKXPXPX",
"{.lXKXKXPXSXz.g.c.l.l.N.].4.#.#.<X'.'.>X@.].4.; F &.rX(.o.Y.O.Y.;XL.2.o.(.[.).U 2 ].1.4.* ..x j %.Z #.V #.c L.8.y.x.vXPXKXPXPXSX",
"{.lXKXPX9Xu.h.l.l.c.p.8X`.3.#.NX<X'.-X<Xr 5 5 .X X~ tXtXQ R ;X' ) L.Y.B K.rX=.H s - < O 6 T Y c Z Z <.V C Q j =.7.x.p.4XPXPXKXSX",
"{.MXPXN.i.k.h.k.h.e.nXLX>X3.dX`.<X>X'.<XjXlXDX@X#Xl (.uXoXX.T ;X;X2.W >.(.OXH %.mX(.[.&X(.= = V V C #.#.V b.) x =.L k.a.M.LXPXSX",
"|.6Xe.p.s.s.k.k.w.LXPXPX@X'.dX>X'.dX'.].*XMXlX(.MXU &.tX@XK.T | B n.R *XqX XH ,.@X*X`.`.yXeX< V V Z #.#.A n.n.o.< 3 y.k.p.e.7XPX",
"*.( p.s.i.a.u.` JXPXPXPXsX<X>XdX>XdX'.<XaXaXaXoXtXK.^ (.uX%XX.] ] H 1X}.rXU T +Xu lXkXpXM >XeX-.V Z Z C A ^ } n.- - q.a.a.s.t.U.",
"D ( t.t.a.t.d.PXPXPXPXPX1XsX<X>X<.dX;.'.>XdX1XuXoXu | W rX/.uXY.L.mX/.uXK.o.&.kXy jXuX+X_.8 (.[.-.V #.V N ] X.L.$ 3 _ t.t.a.t.t.",
"D ( ` ` ` _ KXPXPXJXPXE.` dX>XdXdXdX<X<X'.sXaXMX_.DXv O. XiX_.L.n./.yXeX} Q (.uX^.MXhX`.+XaXqX_.-.Z Z $.c Y ^ I $ +Xd.` ` ` ` ` ",
"J.;X4X7X:XPXPXPXPXKXKXE.4XvX.Xr e r q 8 , w e w 0 w , 5 - w w , , w w , 5 , e w 7 e w w , , % 7 7 , , : 5 , , w e jXPX4X4X4X4X4X",
"|.lXPXPXPXPXPXPXPXPXPXPXi f lX}.s f s p a a p p p a a s a p i a a p a a a a p p p s p p a a a a p a a a a a s d %XCXKXPXPXPXPXPX",
"{.lXPXPXKXPXPXKXPXKXPXPXPX|.% PXPXs lXPXKXKXPXKXJXPXPXJXKXKXKXPXKXKXKXKXJXKXKXKXKXKXKXKXPXKXKXKXKXKXJXKXKXKXKXKXPXPXKXPXPXKXPXSX",
"{.lXPXPXPXPXPXKXPXPXPXKXPXPXlXPXPX# q KXPXPXPXPXPXPXPXPXPXPXPXPXPXPXPXPXPXPXPXPXPXPXPXPXPXPXPXPXPXPXPXPXPXPXPXPXPXPXPXPXPXPXPXSX",
"{.HXp     a i i i # q i i f f i a o # p i e e PXjX%     w q w   % e q $   f d s a w q #   f d d a w q e a f d i w p q   s q a PX",
"{.lXHX. d PXPXPXPXPX  PXPX  w PXPX% w PXPXPXPXKXPXf . PXPXPXPXPX% jXPX=X  % . . o PXPX|.  % X   # JXPX.Xo   . p hXe   # w lXPXSX",
"{.lXCX. p PXPXPX=X# # KXPX. w PXPX$ q PXPXPXPXKXPXd   HXPXPXPXPX% i PXhX.Xf f }.e q PXhX|.f f }.% y }.  |.PXPX#   |.PXPXPXi CXSX",
"|.lXCX. a PX#     |.PXPXPX. w PXPXo w PXhXa PXPXPXd   HXPXPX%XX   PX*XX =XPXKXKX# # hXo =XPXPXPX# 5 *X  KXPXKXhXhXPXPXPX%X  PXKX",
"|.lXCX. p PXlX|.*X5 oXPXPX. % PXPX%X  lX  q PXKXPXd   PXq     i PXPX*X}.f d i   . X hX}.f d i     # PX%X# MXPXPXPXJXq   . HXPXSX",
"|.zXCX. p PXPXPXPXPX  i PXPXPXPXKXPXPXCXPXPXPXPXPXd   HXPXCXPX%Xo hXPXPXHXhXHXPXKXCXPXPXJXhXJXPXPXCXKXPXPXjXHXKXPXPXPXPXPXPXPXKX",
"|.MXCXX p PXPXPXPXCX. e PXKXPXPXPXPXKXPXKXPXPXKXPXs . HXPXPXKXPXf   HXPXPXPXPXPXKXPXPXPXPXPXPXPXKXPXKXPXPXPXPXPXPXKXPXPXPXKXPXKX",
"|.lXlX. d jXe i #   w HXPXPXPXKXPXPXPXKXKXPXKXPXPXp   CXPXKXPXPXp X jXPXPXPXPXKXPXPXPXKXPXPXKXPXPXPXPXPXKXPXPXKXKXPXKXPXPXPXPXSX",
"|.lXPXq q PXPXjX=XPXPXPXPXPXPXPXPXKXPXPXPXPXPXPXPX=X  HXPXPXPXPXfX  lXKXPXPXPXPXPXPXPXPXPXPXPXPXPXPXPXPXPXPXPXPXPXPXPXPXKXPXPXJX",
"|.jXAXPXCXHXAXSXKXAXAXZXZXZXAXbXZXZXbXZXbXbXZXbXbXSXvXcXbXbXbXbXSXnXzXbXbXbXbXbXbXvXbXbXbXbXbXbXZXbXZXbXZXbXZXZXZXAXAXAXAXHXAXAX"
};
