/* XPM */
static char *xpm_[] = {
/* columns rows colors chars-per-pixel */
"32 32 246 2 ",
"   c #010101",
".  c #070A0C",
"X  c #121213",
"o  c #330910",
"O  c #340E0D",
"+  c #2A2828",
"@  c #373236",
"#  c #341E33",
"$  c #4D130B",
"%  c #592717",
"&  c #512A09",
"*  c #722F0B",
"=  c #5E252A",
"-  c #463638",
";  c #522F34",
":  c #613439",
">  c #783838",
",  c #6E3023",
"<  c #491A24",
"1  c #3E453E",
"2  c #6E4300",
"3  c #714B16",
"4  c #5A413C",
"5  c #7A4538",
"6  c #7B652C",
"7  c #3C3244",
"8  c #533A45",
"9  c #663F40",
"0  c #5C5D5B",
"q  c #4E4550",
"w  c #79515E",
"e  c #704B52",
"r  c #564564",
"t  c #5A5374",
"y  c #5E6764",
"u  c #676968",
"i  c #69706A",
"p  c #736E72",
"a  c #74546B",
"s  c #993E08",
"d  c #8D3015",
"f  c #A43907",
"g  c #903629",
"h  c #AE3831",
"j  c #C62E3A",
"k  c #99421A",
"l  c #855712",
"z  c #93540F",
"x  c #A75C02",
"c  c #B55A00",
"v  c #B24A10",
"b  c #916210",
"n  c #AC6502",
"m  c #B66805",
"M  c #A86818",
"N  c #B07114",
"B  c #8C4528",
"V  c #994526",
"C  c #985629",
"Z  c #89463D",
"A  c #984C39",
"S  c #905A38",
"D  c #A94524",
"F  c #AF5532",
"G  c #946E2E",
"H  c #A96F3C",
"J  c #A77835",
"K  c #B76B2D",
"L  c #C35E16",
"P  c #C36700",
"I  c #CC651E",
"U  c #D06F1A",
"Y  c #C96825",
"T  c #D37030",
"R  c #E37033",
"E  c #C4482E",
"W  c #943549",
"Q  c #B52A45",
"!  c #C33545",
"~  c #844748",
"^  c #9A5942",
"/  c #925053",
"(  c #A35D4F",
")  c #B5494C",
"_  c #976649",
"`  c #91734D",
"'  c #B86347",
"]  c #A8764A",
"[  c #A8665A",
"{  c #B97856",
"}  c #B1714D",
"|  c #865E76",
" . c #97696A",
".. c #85697B",
"X. c #976A72",
"o. c #A56C67",
"O. c #AC7C6E",
"+. c #A67875",
"@. c #B67072",
"#. c #C95C4C",
"$. c #C4764D",
"%. c #C87356",
"&. c #C76B52",
"*. c #F17F41",
"=. c #C97271",
"-. c #B98932",
";. c #D1831E",
":. c #EB8719",
">. c #FA9117",
",. c #DB8A28",
"<. c #C98939",
"1. c #CA9539",
"2. c #D89839",
"3. c #D49028",
"4. c #E7972C",
"5. c #E89B34",
"6. c #F1912B",
"7. c #DAA03C",
"8. c #E7A437",
"9. c #F0A731",
"0. c #B38C53",
"q. c #80857F",
"w. c #B78178",
"e. c #AC8669",
"r. c #C48A4A",
"t. c #C89745",
"y. c #D5994A",
"u. c #C89657",
"i. c #CD9359",
"p. c #EF9449",
"a. c #DAA94C",
"s. c #D7A853",
"d. c #DAB658",
"f. c #CEA951",
"g. c #E5A945",
"h. c #E8B248",
"j. c #E6B95A",
"k. c #EFB14F",
"l. c #C88364",
"z. c #CE8E71",
"x. c #CAA664",
"c. c #D5A862",
"v. c #DBB466",
"b. c #DDBB79",
"n. c #CFA678",
"m. c #E7B76A",
"M. c #EDA577",
"N. c #E8BA76",
"B. c #F8BA76",
"V. c #EEB268",
"C. c #F19360",
"Z. c #EAC259",
"A. c #D1C263",
"S. c #E7C56A",
"D. c #F6C765",
"F. c #E2C779",
"G. c #F9C779",
"H. c #FCD77B",
"J. c #EED46B",
"K. c #FBE375",
"L. c #7B7786",
"P. c #997B91",
"I. c #AF7D89",
"U. c #D57C83",
"Y. c #7F8386",
"T. c #858685",
"R. c #979997",
"E. c #BD9998",
"W. c #B18B8F",
"Q. c #A8A49D",
"!. c #BBA79B",
"~. c #9E98A6",
"^. c #9990AE",
"/. c #A894AB",
"(. c #B796A7",
"). c #B39BB5",
"_. c #A7A7A7",
"`. c #B8ABB8",
"'. c #B8B9B8",
"]. c #B3AEAD",
"[. c #C99294",
"{. c #D8B484",
"}. c #C3A69A",
"|. c #C8B59B",
" X c #D1B596",
".X c #CDAD8B",
"XX c #E6BB85",
"oX c #CC91A4",
"OX c #E990AE",
"+X c #DCA4A7",
"@X c #D0AFAD",
"#X c #E1A7B3",
"$X c #BCC7BC",
"%X c #DDC680",
"&X c #E5C58A",
"*X c #F7CA89",
"=X c #F1D98D",
"-X c #EBC697",
";X c #FAC79C",
":X c #FCD895",
">X c #EAD793",
",X c #FFE585",
"<X c #FBE598",
"1X c #FFF998",
"2X c #EDE382",
"3X c #D8CCB2",
"4X c #D1C6AC",
"5X c #E4C8A6",
"6X c #FFDBAD",
"7X c #FAD9A5",
"8X c #F7D1AF",
"9X c #FEE2A4",
"0X c #FFE9A7",
"qX c #FFFDAD",
"wX c #FFF9A6",
"eX c #FFEBB5",
"rX c #FFE3B9",
"tX c #FFFCB3",
"yX c #FFFDBC",
"uX c #FFF4B8",
"iX c #BFACCA",
"pX c #DBB8CA",
"aX c #C9B4C8",
"sX c #EAA2C7",
"dX c #C7C9C8",
"fX c #D6D6D7",
"gX c #CFC9D1",
"hX c #ECCFD3",
"jX c #FFEEC7",
"kX c #FFF3C3",
"lX c #FFFCC4",
"zX c #FFF4CA",
"xX c #FFFDCA",
"cX c #FFF5D4",
"vX c #FFFCD3",
"bX c #FFFBDA",
"nX c #F7ECDF",
"mX c #DBD1E5",
"MX c #F5D8E9",
"NX c #EBD7F1",
"BX c #FBF9E9",
"VX c #FDF3F3",
"CX c #FDFCF5",
"ZX c #FEFDFC",
"AX c #F7F6F6",
"SX c #EEEFED",
/* pixels */
"z m n m.5X|.z N m n -X4X4Xe.n P L K ] 4X4X5Xn P m b  X5XB.n m m ",
"r.y.g.-.eXxX6X2.9.5.b.bXbX0XC.6.I s :XzXbX-X2.9.5.N.e.jXt.g.2.j.",
" XjXs.h.1.<XlX:X8.9.a.tXvXjXT f v s M.zXtXt.9.5.*X-X7XG s.y.7XbX",
"}.bXtXd.d.f.:XtXZ.8.8.H.-XB f R p.K k } a.j.h.D.x.eXH -.v.tXxXcX",
"J yXxXxX<Xd.s.K.wXv.D.1.J B E v R f d D M 3.N.qX-.0.x.n.bXvXuXs.",
"x r.N.uXyXwXZ.d.=XtXV.<.* C.f *.R I f * Y z <XeXb t.5XlXzXb.<.,.",
"n 5.4.2.H.qXyX=XA.,Xt.k K v I 6.U I I T B.z l =X0.>XeXx.1.9.6.:.",
"N <.4.8.f.d.=XtX1X,XC k k T L I 6.Y I v Y H l qX0.%X%X-.8.4.U 5.",
"|.vX6XN.c.d.Z.Z.K.qX] B k K &.z.{ { ' D d k 3 <XJ 0.x.6 F.9XvXbX",
"|.bXvXvXlX<XJ.j.S.F.-Xg d g z.@.U.U.( d g V & F.t.-.wXyXxXvXBXBX",
"K *X*X0XvXvXyXtX1X<X6X^ W ~ VXpXmXMXI.> g B 6 yX9X0.tXtXqX:XF.m.",
"c 2.1.v.3XQ.%X>X2X<X8Xo.= W.L.^.`.p T.~ 5 $ =X<X0X3 0.d.2.5.,.,.",
"c 5.8.t.jX3XG J.J.J.-X+.e q 7 L.`.8 # P.e 3 H.J.2Xb N k.9.>.>.>.",
"c p.a.u. X4X` A.H.1XF.w w MXNXpXaXNXmX..4 S 1XJ.H.M b a.8.9.:.:.",
"] {.5XcX}.+X& lX1X<XN., : pXMXaX/.aXpXW.< % wXwXtX0.` BX>XF.N.c.",
".XbXbXbX8X+.` n.&X:XS & < | ).P.r P.(.o O 5 :Xb.:X0.` bXvXxXlXzX",
"{.uX0Xm.&X} e.} ( * % o (.a ).NXNXaX8 pXo < % zX*XC 2 v.S.<XyXkX",
"H y.1.j.} $.%.' ' , $ [.w /.^.r t r P.8 #XO $ } uX& 2 v.a.2.r.k.",
"c 8.2.1.;X_ ' ' F , X.MX= #XmXgX^.^.I.= +XW.A $ 8X* ` 7Xt.8.6.U ",
"x <.j.qXuXl.h ' #.U.#XhX> +.].aX`.(.X./ o.hXA &.g V e.vXqXj.;.>.",
"` jXvXlX:XB.#.Q ) U.W [ 5 _ { z.[.{ ( Z ~ [ g D d h A 6XxXxXeXx.",
" XbXzX&Xs.V.#.W OXOX@.X.g [ =.$.%.l.^ o.9 U.d h h h D $.&XxXvXvX",
"{.uX8.g.t.6XI.OXOXoXI.E. .+XF z.z.S .X~ I.W 9 W ! j E f $.s.0XlX",
"0.t.7.;.7XnXU.sXOXI.hX(.(.+..X_ S z.O.X.(.iXoXW Q ! T C.$ a.0.*X",
"z u.-.9XbXcX}.#X#XoX`.mXE. .}.!.}.|. .}./.aXP.W.W Q A } & 0.r.<.",
"n.rXzXBXAXSXW.W.e q @ - ; - - @ - - ; 8 8 7 @ ; 8 = , % .XvXrX6X",
"}.BXBXZXZXAXAXgX`.gXZXZXZXZXZXZXZXZXZXAXZXAXZXZXZXVXZXZXCXCXCXCX",
"dX@ 0 @X~.q u Y.0 0 _.fXR.. ~.T.q T.. X i Y.  X p R.. + i   u mX",
"$Xu gXp @ AXi '.T.].gXZX$Xi ZX].q _.dXfX. '.dXSXX + ZX'.q.ZX0 ZX",
"$Xi $XSXfXy $X$XAX_.p ZX'.i p u fXfXR.T.i mXR.T.p ZXR.ZXZX0 4XZX",
"dX0 _._.i 1 AXZXCXCXZXZX].0 ZXZX  CXZXZXZXZXCXZXZXCXZXZXZXZXZXAX",
"].mXdXAXAXAXAXSXVXVXVXBXSXQ.CXCX!.SXAXAXVXVXVXAXZXSXAXSXAXAXZXSX"
};
