/* XPM */
static char *_0e4c8464d344b2bad95cfed8cebddeb9GLqVcVYJBsjZGdd[] = {
/* columns rows colors chars-per-pixel */
"32 32 32 1 ",
"  c white",
". c gray96",
"X c gray34",
"o c #E9E9E9",
"O c #FDFDFD",
"+ c #353535",
"@ c #D5D5D5",
"# c #9B9B9B",
"$ c gray72",
"% c gray25",
"& c gray94",
"* c #909090",
"= c #4B4B4B",
"- c #A9A9A9",
"; c gray36",
": c gray89",
"> c #444444",
", c gray49",
"< c #C1C1C1",
"1 c #6C6C6C",
"2 c gray69",
"3 c gray86",
"4 c #717171",
"5 c gray39",
"6 c #A4A4A4",
"7 c #C8C8C8",
"8 c gray63",
"9 c gray53",
"0 c gray82",
"q c #505050",
"w c #F9F9F9",
"e c #222222",
/* pixels */
"        w3.                     ",
"        O91& O                  ",
"         o9<w6:                 ",
"          &7w>8                 ",
"O#11441144441e>41-              ",
"O$+52265#28--+1220              ",
" 3><   #<.;7 >#                 ",
" 0%<  3;<&+$O>#                 ",
" 0%<.<;Xo&+$O>#                 ",
" 0%$#+>7 o+$O>#3*&              ",
" 0%<3###o&+$ 49#X&              ",
" 0%<  O,9w$3 o--:               ",
" 0%<   #X&                      ",
" 0%<  .1;.                      ",
" 0%20$4+8      OO               ",
" @>$25;8.      OOO              ",
" w87 ..        O                ",
"O.&&...........................O",
".,>qXX=XXq=;;XXX=X;;XXX;;XXq>X1:",
"O-+-@0**@9X8*$@2%8*-0@7##70,e$3.",
" -=o  :4&8+;q>00+XX%-3=+X1;%5*: ",
" 6=o  3X@0#,9=*o8,,5;5+0:++@O32 ",
" 6=o .95:,;,4e,6X,,%>%, :q2  <* ",
" 6=374%$0*. @%59: o5=*5. .wo-%$ ",
" 6=<X+9wo#,5%+,291>+X&#2w O*e*w ",
" 6=:@7##.o$-@:3.7-7o0OO3&  o0O  ",
" 6=o  :X$               O       ",
" 6=o  &X*                       ",
" 6=o  &X*                       ",
" 2qo  .5*                       ",
" .-o   0$                       ",
"  OO    w                       "
};
