/* XPM */
static char *_656b7af0a0a43daf82409ec832612fcBFQTJNluGNirDxLy[] = {
/* columns rows colors chars-per-pixel */
"128 128 28 1 ",
"  c white",
". c #FEFEFE",
"X c #010101",
"o c #FDFDFD",
"O c gray20",
"+ c #070707",
"@ c gray99",
"# c #313131",
"$ c #131313",
"% c gray18",
"& c gray87",
"* c #C6C6C6",
"= c gray74",
"- c #898989",
"; c gray62",
": c gray30",
"> c gray94",
", c #3F3F3F",
"< c gray97",
"1 c #D7D7D7",
"2 c #E9E9E9",
"3 c #6D6D6D",
"4 c #AEAEAE",
"5 c #222222",
"6 c gray81",
"7 c #7C7C7C",
"8 c #646464",
"9 c #585858",
/* pixels */
"                                 .    ...   ..                                                                                  ",
"                                ..ooo...o.o...                                                                                  ",
"                                ..o@@@  .oo.@.                                                                                  ",
"                                 ..o*3;&<.oo.                                                                                   ",
"                                ..o.&#+53*<o..                                                                                  ",
"                                 ..oo-XXX572 @.  ...ooo...                                                                      ",
"                                 . . *5XXX+7<o. .o@@.@o@o. .                                                                    ",
"                                 . ..>:XXXX%&    ..o.o@.o.                                                                      ",
"                                 . ..o63O+X+4 . .oo.<2..@o.                                                                     ",
"                                 . .oo.<24OX3<  ....19*@@.                                                                      ",
"                                   ...    =$%& ..o. 6$5;>.o.                                                                    ",
"                                    .   ..@3$4 o... 1$X$3& .                                                                    ",
"                                        .. 659<.... 1$XXX-                                                                      ",
"                                       .oo@<3$*.o.  1$XXX- .                                                                    ",
"    .... . .     .                     ..o. 1:* o . 1$XXX-           .  .                                                       ",
"   .o@o. ..........     ........  ....... ..@><...o 1$XXX- ............o.                                                       ",
"   .o                                               1$XXX-             oo                                                       ",
"    @4;;;;;;;;;;;;;;;;;;;;;;;;;;;;;;;;;;;;;;;;;;;;;;-+XXX9;;;;;;;;;;;;6 @.                                                      ",
"   .>%XXXXXXXXXXXXXXXXXXXXXXXXXXXXXXXXXXXXXXXXXXXXXXXXXXXX+XXXXXXXXXXX- @.                                                      ",
"    >%XXXXXXXXXXXXXXXXXXXXXXXXXXXXXXXXXXXXXXXXXXXXXXXXXXXXXXXXXXXXXXXX- ..                                                      ",
"    >,$$$+++++++$$$$$$$$$$$+X++$$$$$$$$$$$$$$$$$$$$$$XXXX+$$$$$$$$$$$$; @.                                                      ",
"   .@&&&4,%%%%941&&&&&&&&&*;,%,=&&&&&&&&&&&&&&&&&&&&=$XXX7&&&&&&&&&&&&>.@.                                                      ",
"   ... <7#OO#91 o .     .  .*:%7<    ..          .  1$XXX-            .o.                                                       ",
"    .o 6,##OO4 ..         ...4O,=.....o..o.o.o.. .. 1$XXX-          .o.                                                         ",
"    .. 4OOOO,6 .           ..2:%7<oo o. ;8387>.@    1$XXX-          ..                                                          ",
"    .. -OOO#,& .           .o>9#:&..... 8XXX52.o.   1$XXX-          ..                                                          ",
"    .. -%#O#,& .           ..&:%,*..ooo 8XXX52o..   1$XXX-          ...                                                         ",
"    . .-%OO#,& .          .. =,#,=..o.. 8XXX52@o.   1$XXX-          .   .                                                       ",
"       -%OO#,&     .  .o. .o<7##,4 . .  8XXX52 ..   1$XXX-           .                                                          ",
"      .-%OO#,&        .@ooo.=,O#,*      8XXX52 ..   1$XXX-           .                                                          ",
"       -%OO#,&        .oo@.69#O#,1..    8XXX52  .   1$XXX-           .                                                          ",
"      .-%OO#,&       .oo@.19##O#3>o...  8XXX52     .1$XXX-           .                                                          ",
"     . -%OO#,&  .....oo.<=9OO#OO4.@.    8XXX52      1$XXX-     .  . ..                                                          ",
"     . -%OO#,& o..o.o. 2;,###O#:& o     8XXX52     .1$XXX-  ...oooo. .                                                          ",
"     . -%OOO,& .@ooo.<*8O#OO#OO;o.o     8XXX52      1$XXX-  .ooo@o@. .                                                          ",
"     . -%OO#,& o.o.>*7,##OOOO#82 oo     8XXX52     .1$XXX-  ..oo. o  .                                                          ",
"     . -%OOO,& o<&43,#O#OOO##96 ooo     8XXX52      1$XXX-  o.@1& . ..                                                          ",
"     . -%OO#,& <;9O#OOOOOO##9*o.        8XXX52    . 1$XXX-  ..o-,;> .o.                                                         ",
"     . -%OO#,& <=:#OOOOOOOO86o@.        8XXX52    o 1$XXX-  o. -X+:4<@                                                          ",
"     . -%OO#,& @@=:%O#OO##72.@..        8XXX52   .. 1$XXX- ...o7XXX$;..                                                         ",
"     . -%OO#,& o@o=:###O%O9-6< o.       8XXX52   .o &%XXX-  ..<:XXX$= .                                                         ",
"     . -%OO#,& @o..=:O9;-8O#,76o  ..... 8XXX52   .o.<8XXX-    15XXX7<o.                                                         ",
"     . -%OO#,& ....o*4&@@249##:;>o@@o.o 8XXX52 .. .. 4$XX7 oo.-XXX:2 o.                                                         ",
"     . -%OO#,&    .o@o@oo..18##,->ooo.. 3XXX52..o .oo<7+X,6.<45XX:6 .                                                           ",
"     . -%OO#,&     @@@o@o.o 6:##O;@ ooo.69$X52..o ... >7$X#89$X$8& o.                                                           ",
"     . -%OO#,&   .o.oo.ooooo<-#O#,6 ..o..>4:%2oo.  . . <=3O+$:3=>o@oo                                                           ",
"     . -%OO#,&    ....    .. 6,#O#7<.   .. 2=<.o..     . @21&>@     ..                                                          ",
"     . -%OO#,&     .         29#O#:1     .o  .           ..          .                                                          ",
"     . -%OO#,&             . <9##OO4  ..  ooo.                       .                                                          ",
"     . -%OO#,&            ...<9#OO#;o..  .@o.    ..                  .                                                          ",
"     . -%OO#,&             .o<9##O#-@.    .. .                       .                                                          ",
"     . -%OO#,&            .. 29#OO#-@.                               .                                                          ",
"     . -%OO#,&            o@ *,#OO#-o.                               .                                                          ",
"     . -%OO#,&           ...<-##O##;o.                               .                                                          ",
"     . -%OO#,&            . *:#O#O#4 .                               .                                                          ",
"     . -%OO#,& .... .   .. &8OOOO#:1                                 .                                                          ",
"     . -%OOO,&.oooo.  .oo@13O##OO%3<.                        .@@.    .                                                          ",
"     . -%O#O,61< ...   <&;9#OOOOO,= .                        .@@.    .                                                          ",
"     . -%OOO,&*;&<<>264-9O#OO#OOO-<o.                        .oo.    .                                                          ",
"     . -%OO#,&<;9999::O###OOO#O#32.o.                        .o@.    .                                                          ",
"     o -%O##,& >-O%%###OOO#OO#O7&.oo.                        .o@.   .o.                                                         ",
"   .oo.-%OO#,& @>4:##OO#O#O##:-2 oo.                         .o@.   .o.                                                         ",
"   .oo -%O#O,& oo@6-:OO#%OO:7*<@@@...                        .o@.  ...                                                          ",
"     o.=,#OO,& o.. <&=;73-41>@o@ooo..                        .o@.  .o..                                                         ",
"     .o@4,#O,& oo...    .   oooo..o.                         .o@.   ..                                                          ",
"     o..@4,#,& ..  ..     ..    ..                            o@.                                                               ",
"     ..@@<4,,& ..                                             o@.                                                               ",
"     ..o@o@49& ...                                           .o@.                                                               ",
"      .oo.o@1<                                              .o@.                                                                ",
"..oo...                                                     .oo.                                                        ..   .. ",
".o@@o..                                                     ....                                                        .o.oo.o ",
" ..o.                                                                                                                       @@. ",
"  o &***********************************************************************************************************************>o. ",
"  . -X+++++++++++++++++++++++++++++++++++++++++++++++++++++++++++++++++++++++++++++++++++++++++++++++++++++++++++++++++++++51 o ",
" .o -XXXXXXXXXXXXXXXXXXXXXXXXXXXXXXXXXXXXXXXXXXXXXXXXXXXXXXXXXXXXXXXXXXXXXXXXXXXXXXXXXXXXXXXXXXXXXXXXXXXXXXXXXXXXXXXXXXXXXX$6 o ",
" .o -X++XXXXXXXXXXXXXXXXXX++++++XXXXX+XXXXXXX+XXXXXXXXXXXXXXXX+XXXX++XXXXXXXXXXXXXXXXXXXXXXXXXXXXXXXXXXXXXXX+++XXXXXXXXXXXX$1 . ",
"..@ &==;O5555:-4======4;9%%34=========7XX+;====================-XX+;==========================================;$XXX8========>o. ",
" ..o  >7OOOO91         .>4:,->        4XX$1                    4XX+6                                          &$XXX-        @oo ",
"    . *,#O#,4.o      ..o.@4,O-2..  .  4XX$6   @<2>><   o..o... 4XX$6   @<>>>@o .o..  ......  @>2><@ .@....... &$XXX- oo...ooo.. ",
"    . ;O###:& .       .o@o<7#O-<...o. 4XX$62=;79%5,3-=>..o@oo. 4XX+*2*;79%5,3-4>.@o.oo.@o @&;7,5O3-*< o@@o. <6-+XXX82o @o@oo... ",
"    ..7#OO#:>..        .@..*,#,* ..o. 4XX+OO$XXXXXXXX$:*o@@o@. 4XX+OO$XXXXXXXX$:*@ooooo..17%+XXXXXX$9=<.o.2495XXXXX+%-&.@@@oo.  ",
"    .@3%OOO:>@.        .oo.28#O7<..o. 4XXXXXXXXXXXXXXXX#*.o.o. 4XXXXXXXXXXXXXXXX%=.o..o@4#XXXXXXXXXXX$71&;,+XXXXXXXXXX,=@oo@    ",
"     o3%#O#:>..         .oo<7%#:& o.o ;XXXXX+$$$$$$+XXXX:>o.@o 4XXXXX+$$$$$$+XXXX:> oo<;$XXXXXX+$$$$+XXO,+XXXX+$,8378O+5=@o..   ",
"     o3%OO#:>          ..oo<7%OO4 .. 1:XX5:34=611164:+XX$4 oo.&:XX$:34=6111649+XX+4 o.45XXXXX+:;61164,XXXXXXX%7*2<oo<&;%O& o.   ",
"     o3%OO#:>          ..o.<7%O%;. o -$,-*>.     .  23+XX7@.. ;$,-*>         >7+XX3@ 2,XXXXX%;2    .o7XXXXXX:6@   ..@o.*%- o.   ",
"     .3%OO#:>          . oo29OO%;@oo 6=>o   <>&612<. &5XX8<@o.6=>@   <>&612<  25XX8< -+XXXX#*. @@oo *5XXXXX92 @.o..ooo@.7,>@@.  ",
"     .3%OO#:>          ..o *,###; .ooo .o<6;8:%$$,8;&25XX9>..oo oo<6;8:%$$,8;12%XX:><:XXXX$4 oooo@@<9XXXXX,& @o.....o@@ ;%& o   ",
"     .3%OO#:>           .o<-#O#,= ooo<o<=85+XXXXXXXX%75XX,2 oo. @*85+XXXXXXX+575XXO2&%XXXX8<.. ..oo*$XXXX$4 @o..   .o@@ -$= .   ",
"     .3%OO#:>       . .o@ *,#O%:& o@oo&7$XXXXXXXXXXXX++XX$&... &75XXXXXXXXXXXX+XXX$&*$XXX$* .   ..@-XXXXX8<.. ..  ..ooo<3X4 .   ",
"     .3%OO#:>        ..oo28%OO#7<oo@.6,XXXX+5%%%%5+XXXXX+$& @o6,XXXX+5%%%%5+XXXXXX$&=+XXX%2.o.... <3XXXX+4 .      ..@@o1%+4 .   ",
"     .3%OO#:>       .o. 27OOOO,=.@o.6OXXX$8;12>>26;3%+XXX$& @6,XXX$9;12>>26;3%+XXX$&&%XXX%>o     o@*7%+XO2.o o    .oo.>3X56 .   ",
"     .3%OO#:> ...  .o. 27O#OO#3>oo 2:XX$9*< . ..   <&7+XX$& 29XX$9=< .. .   @&-$XX$&<:XXX%> ... ..o @&;:3@o... . ....<-+XO2 .   ",
"    ..3%OO#:> ...... @63OOOO#,* o@.;+X5;<  .o...oooo &5XX$& ;+X5;> ooo.....oo 25XX$1 ;+XX51 o...  .... >2.. .....oo >-+XX3@.    ",
"    .o3%OO#:> ..@o.o2;:#O#OOO-<o.o.9X%= .o....o@@o@ >7+XX$&<9X5=.....   .o.o.>7+XX$1 2:XX+-.o..     .oo  . oooo.o .13+XX$= .    ",
"    .@3%OO#:>.@. @&;9O#O#OO#82oo..@:+;.oo...o@o@oo.&8+XXX$&>,+;@@...o ...o@.&3+XXX$1 o=5XXO&.o..     @o... oo.o. 2;#XXXX3<oo.   ",
"    .@3%#O#:>@<2*-:O##OOOO#91 @@oo@:,>..  ...oo .2;,XXXX+$&<:,>.o. .. ..  >4,+XXXX$& o@;$X+7<oo.    ..o.o...  @2;:+XXXXO6.o..   ",
"    .@3%OO#:>>;9,###OOOO##:= @@@o@ -O1        <6;:+XXXXXX$& ;O1        <6;:$XXXXXX$& o.<-$X$4 o..  .      .<*;3%$XXXXX5=.o@o.   ",
"    .o3%OO#:>o=:#OOO#OO#O96@o.o.oo.&:O;=*6*=4-:5XXXXXXXX+$& 2:#-=***=4-:5XXXXXXXXX$1 .. <;5X#6 o.. .     oo@;5XXXXXXX5;<o....   ",
"     .3%O##:>.@=:#O#O##O31 .@o...oo.6,X++++++XXXXXXX53$XX$&.o1,X++$++++XXXXXX53$XX$&   .o@*:+,6 o@ ..    @o.@;5XXXXX#=@oo.o..   ",
"     .3%O##:>.o@=:###OO#:-*>..o.o.o@@&3$XXXXXXXXX+$36>8+X$&oo@&35+XXXXXXXX+$36>8+X$1   ..@.2-5,6 ....    ..oo@45XX$96.@oo..     ",
" .   .3%OO#:>o@@@=:O9;;8,%,3=<.ooo@oo <*-:#$X+5O:-6< o>;O5& oo.@6-:O$XX5,:-*<.o>;O$1 .   o@.<*3:=@ .      ooo.o=O,;> ooo...     ",
"     .3%OO#:>.o@o@=42@ >*3O#,-2.ooooo..  <&=4=62<   ..  &4>....   <&=4=62<  ..@o.24> .   ..o. <*;6oo.     .o..@ &2  .....       ",
"     .3%OO#:> ....  . .. 27O#O32o....  ..         .    .  oo    ...      . . .o..  ....    ..oo <2@oo         .@ .              ",
"     .3%OO#:> .oo.o..ooooo23#O#7>......   .o.o  ..     .o@o.    o.ooo.....    ..o@...oo     .o@ooooo.        .@ooo.             ",
"     .3%OO#:> .o......o@@@ =,##O;@.... . ..oo.. .      .@@..    ....o....     ......oo.     ..o@o@oo.         .ooo.             ",
"     .3%OO#:>           .o 28#O#:&....      .   .       ..             .                    ......   ..                         ",
"     .3%OO#:>            . <7###O; oo                                                          .     ..                         ",
"     .3%OO#:>            .. -%OO#7<.o                                                                .                          ",
"     .3%OO#:>            .. -%OO#82 .                                                                                           ",
"     .3%OO#:>            .. -%OO#,&                                                         .                                   ",
"     .3%OO#:>            .. -#OOO,1                                                                                             ",
"     .3%OO#:>             . -%OOO,1                                                                                             ",
"     .3%OO#:>               -%OO#,1                                                                                             ",
"     .3%OO#:>               -%OO#,1                                                                                             ",
"    ..3%OO#:>               -%OOO,1                                                                                             ",
"    .o3##O#:>            .. -####,1                                                                                             ",
"    .o3#O##:>            .o -%#OO,1                                                                                             ",
"    .@3##O#:>            .. -%OO#,1                                                                                             ",
"    .o-#O##:>            .o ;O#O#,1                                                                                             ",
"   .oo&3OO#:> .   .      ...>-O#O,1 .                                                                                           ",
"    .o.&3O#:>...           ..>-O#,1 .                                                                                           ",
"    ..o.&3#:>@..            o.>-O,1 .                                                                                           ",
"     .oo.27:2o..           .oo.>;:1 .                                                                                       ... ",
"      .oo.>;> ..            .oo <;& .                                                                                           ",
"       ...o<@ ..              ...<@o                                                                                            ",
"         .o@....                 ..o.                                                                                           ",
"          o.o                   ...o.                                                                                           ",
"                                                                                                                                "
};
