/* XPM */
static char *f037578451b049def6159a22b456ec74RrHdy62VFVCOXQSF[] = {
/* columns rows colors chars-per-pixel */
"16 16 26 1 ",
"  c white",
". c gray92",
"X c gray75",
"o c #D5D5D5",
"O c gray69",
"+ c #909090",
"@ c gray71",
"# c #A5A5A5",
"$ c #7C7C7C",
"% c #FBFBFB",
"& c gray60",
"* c gray54",
"= c #A0A0A0",
"- c gray80",
"; c #AAAAAA",
": c gainsboro",
"> c #E1E1E1",
", c #676767",
"< c #F3F3F3",
"1 c gray43",
"2 c #838383",
"3 c #767676",
"4 c #C6C6C6",
"5 c #D0D0D0",
"6 c gray97",
"7 c #555555",
/* pixels */
"    o-          ",
"%<<<>X@56       ",
"-3=+&&,$X%      ",
"o+%@X==X        ",
"o+#2o*#O>       ",
"o+oO4@5#-       ",
"o+ O;  %        ",
":+@2:           ",
".4::...........<",
"X3#**1*+12=**$1-",
"X= O@1,O3,2$$$@>",
"X&X+O#,$;37O5oO-",
"X+&;o;&@O&Xo%:;6",
"X= #-   %       ",
"4# OX           ",
"<> ..           "
};
